<svg width="24" height="24" viewBox="0 0 24 24" fill="none" xmlns="http://www.w3.org/2000/svg">
<g clip-path="url(#clip0)">
<path d="M23 3.5V9.5H17" stroke="black" stroke-width="2" stroke-linecap="round" stroke-linejoin="round"/>
<path d="M1 19.5V13.5H7" stroke="black" stroke-width="2" stroke-linecap="round" stroke-linejoin="round"/>
<path d="M3.51 8.50008C4.01717 7.06686 4.87913 5.78548 6.01547 4.77549C7.1518 3.76551 8.52547 3.05984 10.0083 2.72433C11.4911 2.38883 13.0348 2.43442 14.4952 2.85685C15.9556 3.27928 17.2853 4.06479 18.36 5.14008L23 9.50008M1 13.5001L5.64 17.8601C6.71475 18.9354 8.04437 19.7209 9.50481 20.1433C10.9652 20.5657 12.5089 20.6113 13.9917 20.2758C15.4745 19.9403 16.8482 19.2346 17.9845 18.2247C19.1209 17.2147 19.9828 15.9333 20.49 14.5001" stroke="black" stroke-width="2" stroke-linecap="round" stroke-linejoin="round"/>
</g>
<defs>
<clipPath id="clip0">
<rect width="24" height="24" fill="white"/>
</clipPath>
</defs>
</svg>
