<svg width="90" height="90" viewBox="0 0 90 90" fill="none" xmlns="http://www.w3.org/2000/svg">
<path d="M78.15 17.287C76.2346 15.3708 73.9605 13.8507 71.4575 12.8136C68.9546 11.7765 66.2718 11.2427 63.5625 11.2427C60.8531 11.2427 58.1703 11.7765 55.6674 12.8136C53.1644 13.8507 50.8903 15.3708 48.975 17.287L45 21.262L41.025 17.287C37.1561 13.4182 31.9088 11.2447 26.4375 11.2447C20.9661 11.2447 15.7188 13.4182 11.85 17.287C7.98111 21.1559 5.80762 26.4031 5.80762 31.8745C5.80762 37.3459 7.98111 42.5932 11.85 46.462L15.825 50.437L45 79.612L74.175 50.437L78.15 46.462C80.0662 44.5467 81.5863 42.2726 82.6234 39.7696C83.6605 37.2666 84.1943 34.5839 84.1943 31.8745C84.1943 29.1652 83.6605 26.4824 82.6234 23.9794C81.5863 21.4765 80.0662 19.2024 78.15 17.287V17.287Z" stroke="#0869F0" stroke-width="7" stroke-linecap="round" stroke-linejoin="round"/>
</svg>
