<svg width="24" height="24" viewBox="0 0 24 24" fill="none" xmlns="http://www.w3.org/2000/svg">
<g clip-path="url(#clip0)">
<path d="M16 3.5H18C18.5304 3.5 19.0391 3.71071 19.4142 4.08579C19.7893 4.46086 20 4.96957 20 5.5V19.5C20 20.0304 19.7893 20.5391 19.4142 20.9142C19.0391 21.2893 18.5304 21.5 18 21.5H6C5.46957 21.5 4.96086 21.2893 4.58579 20.9142C4.21071 20.5391 4 20.0304 4 19.5V5.5C4 4.96957 4.21071 4.46086 4.58579 4.08579C4.96086 3.71071 5.46957 3.5 6 3.5H8" stroke="black" stroke-width="2" stroke-linecap="round" stroke-linejoin="round"/>
<path d="M15 1.5H9C8.44772 1.5 8 1.94772 8 2.5V4.5C8 5.05228 8.44772 5.5 9 5.5H15C15.5523 5.5 16 5.05228 16 4.5V2.5C16 1.94772 15.5523 1.5 15 1.5Z" stroke="black" stroke-width="2" stroke-linecap="round" stroke-linejoin="round"/>
</g>
<defs>
<clipPath id="clip0">
<rect width="24" height="24" fill="white"/>
</clipPath>
</defs>
</svg>
