<svg width="59" height="58" viewBox="0 0 59 58" fill="none" xmlns="http://www.w3.org/2000/svg">
<circle cx="29.937" cy="28.9683" r="28.9683" fill="#0F68E9"/>
<path d="M24.5152 29.1666C24.5152 26.0619 27.0315 23.5444 30.1363 23.5444C33.241 23.5444 35.7586 26.0619 35.7586 29.1666C35.7586 32.2713 33.241 34.7887 30.1363 34.7887C27.0315 34.7887 24.5152 32.2713 24.5152 29.1666ZM21.4759 29.1666C21.4759 33.9495 25.3531 37.8266 30.1363 37.8266C34.9194 37.8266 38.7966 33.9495 38.7966 29.1666C38.7966 24.3837 34.9194 20.5066 30.1363 20.5066C25.3531 20.5066 21.4759 24.3837 21.4759 29.1666ZM37.1156 20.1632C37.1154 20.5635 37.234 20.9548 37.4562 21.2877C37.6785 21.6206 37.9945 21.8801 38.3642 22.0335C38.734 22.1868 39.1409 22.227 39.5335 22.1491C39.9261 22.0712 40.2868 21.8786 40.57 21.5956C40.8532 21.3127 41.0461 20.9522 41.1243 20.5596C41.2026 20.1671 41.1626 19.7601 41.0096 19.3903C40.8566 19.0204 40.5973 18.7042 40.2646 18.4817C39.9318 18.2592 39.5406 18.1404 39.1403 18.1402H39.1395C38.6029 18.1405 38.0884 18.3536 37.7089 18.733C37.3295 19.1123 37.116 19.6267 37.1156 20.1632ZM23.3225 42.8944C21.6782 42.8195 20.7844 42.5456 20.1905 42.3142C19.403 42.0077 18.8412 41.6426 18.2505 41.0527C17.6598 40.4628 17.2941 39.9016 16.9889 39.1142C16.7574 38.5205 16.4835 37.6265 16.4088 35.9822C16.327 34.2045 16.3107 33.6705 16.3107 29.1667C16.3107 24.6629 16.3283 24.1304 16.4088 22.3512C16.4836 20.7069 16.7596 19.8147 16.9889 19.2193C17.2955 18.4319 17.6606 17.8701 18.2505 17.2794C18.8404 16.6887 19.4017 16.3231 20.1905 16.0179C20.7841 15.7864 21.6782 15.5125 23.3225 15.4377C25.1003 15.356 25.6343 15.3397 30.1363 15.3397C34.6382 15.3397 35.1728 15.3573 36.9521 15.4377C38.5964 15.5126 39.4887 15.7885 40.0841 16.0179C40.8715 16.3231 41.4334 16.6895 42.0241 17.2794C42.6148 17.8693 42.9791 18.4319 43.2856 19.2193C43.5171 19.813 43.791 20.7069 43.8658 22.3512C43.9476 24.1304 43.9639 24.6629 43.9639 29.1667C43.9639 33.6705 43.9476 34.203 43.8658 35.9822C43.7909 37.6265 43.5157 38.5202 43.2856 39.1142C42.9791 39.9016 42.614 40.4634 42.0241 41.0527C41.4342 41.642 40.8715 42.0077 40.0841 42.3142C39.4904 42.5457 38.5964 42.8196 36.9521 42.8944C35.1743 42.9761 34.6402 42.9925 30.1363 42.9925C25.6323 42.9925 25.0997 42.9761 23.3225 42.8944ZM23.1828 12.4036C21.3874 12.4854 20.1605 12.7701 19.0891 13.187C17.9794 13.6175 17.0401 14.1951 16.1014 15.1323C15.1627 16.0694 14.5866 17.0102 14.156 18.1198C13.7391 19.1919 13.4544 20.4181 13.3726 22.2135C13.2895 24.0117 13.2705 24.5866 13.2705 29.1666C13.2705 33.7466 13.2895 34.3215 13.3726 36.1197C13.4544 37.9153 13.7391 39.1413 14.156 40.2134C14.5866 41.3223 15.1628 42.2641 16.1014 43.2009C17.0399 44.1377 17.9794 44.7144 19.0891 45.1462C20.1625 45.5631 21.3874 45.8478 23.1828 45.9295C24.9821 46.0113 25.5561 46.0317 30.1363 46.0317C34.7165 46.0317 35.2914 46.0126 37.0897 45.9295C38.8853 45.8478 40.1113 45.5631 41.1835 45.1462C42.2924 44.7144 43.2325 44.1381 44.1711 43.2009C45.1098 42.2637 45.6847 41.3223 46.1165 40.2134C46.5334 39.1413 46.8195 37.9151 46.8999 36.1197C46.9816 34.3202 47.0007 33.7466 47.0007 29.1666C47.0007 24.5866 46.9816 24.0117 46.8999 22.2135C46.8181 20.4179 46.5334 19.1912 46.1165 18.1198C45.6847 17.0109 45.1083 16.0709 44.1711 15.1323C43.2339 14.1936 42.2924 13.6175 41.1848 13.187C40.1113 12.7701 38.8851 12.4841 37.091 12.4036C35.2927 12.3219 34.7178 12.3015 30.1376 12.3015C25.5574 12.3015 24.9821 12.3205 23.1828 12.4036Z" fill="white"/>
</svg>
