<svg width="90" height="90" viewBox="0 0 90 90" fill="none" xmlns="http://www.w3.org/2000/svg">
<path d="M26.25 82.5H15C13.0109 82.5 11.1032 81.7098 9.6967 80.3033C8.29018 78.8968 7.5 76.9891 7.5 75V48.75C7.5 46.7609 8.29018 44.8532 9.6967 43.4467C11.1032 42.0402 13.0109 41.25 15 41.25H26.25M52.5 33.75V18.75C52.5 15.7663 51.3147 12.9048 49.205 10.795C47.0952 8.68526 44.2337 7.5 41.25 7.5L26.25 41.25V82.5H68.55C70.3587 82.5204 72.1139 81.8865 73.4921 80.715C74.8704 79.5435 75.7788 77.9134 76.05 76.125L81.225 42.375C81.3882 41.3001 81.3157 40.2026 81.0125 39.1584C80.7094 38.1143 80.1829 37.1486 79.4695 36.3282C78.7561 35.5078 77.8728 34.8522 76.8809 34.4071C75.889 33.9619 74.8122 33.7377 73.725 33.75H52.5Z" stroke="#0869F0" stroke-width="7" stroke-linecap="round" stroke-linejoin="round"/>
</svg>
