<svg width="58" height="58" viewBox="0 0 58 58" fill="none" xmlns="http://www.w3.org/2000/svg">
<circle cx="28.9683" cy="28.9683" r="28.9683" fill="#0F68E9"/>
<path d="M29.9141 40.6663L22.994 40.5403C20.7534 40.4964 18.5072 40.584 16.3106 40.129C12.969 39.4492 12.7323 36.1158 12.4845 33.3197C12.1432 29.3887 12.2754 25.3864 12.9195 21.4883C13.2831 19.301 14.7141 17.9958 16.9272 17.8538C24.3978 17.3384 31.9181 17.3995 39.3722 17.6399C40.1595 17.662 40.9521 17.7825 41.7284 17.9196C45.5602 18.5885 45.6536 22.366 45.902 25.5459C46.1497 28.7587 46.0451 31.9879 45.5717 35.1788C45.1918 37.8208 44.4651 40.0363 41.398 40.2502C37.5552 40.5299 33.8007 40.755 29.9471 40.6833C29.9472 40.6663 29.9251 40.6663 29.9141 40.6663ZM25.8457 33.9776C28.7416 32.3218 31.5822 30.6935 34.4615 29.0488C31.5602 27.3929 28.725 25.7647 25.8457 24.12V33.9776Z" fill="white"/>
</svg>
