<svg width="59" height="58" viewBox="0 0 59 58" fill="none" xmlns="http://www.w3.org/2000/svg"><circle cx="29.937" cy="28.968" r="28.968" fill="#0F68E9"/><path d="M24.515 29.167a5.622 5.622 0 1111.244-.001 5.622 5.622 0 01-11.244 0zm-3.04 0a8.66 8.66 0 008.661 8.66 8.66 8.66 0 100-17.32 8.66 8.66 0 00-8.66 8.66zm15.64-9.004a2.024 2.024 0 102.025-2.023 2.025 2.025 0 00-2.024 2.023zM23.323 42.894c-1.644-.075-2.538-.348-3.131-.58a5.24 5.24 0 01-1.94-1.261 5.203 5.203 0 01-1.262-1.939c-.232-.593-.506-1.487-.58-3.132-.082-1.777-.098-2.312-.098-6.815 0-4.504.017-5.037.098-6.816.075-1.644.35-2.536.58-3.132a5.242 5.242 0 011.261-1.94 5.198 5.198 0 011.94-1.261c.594-.232 1.488-.506 3.133-.58 1.777-.082 2.311-.098 6.813-.098s5.037.017 6.816.098c1.644.075 2.537.35 3.132.58.787.305 1.35.671 1.94 1.261.59.59.955 1.153 1.262 1.94.231.594.505 1.488.58 3.132.082 1.78.098 2.312.098 6.816 0 4.503-.016 5.036-.098 6.815-.075 1.645-.35 2.538-.58 3.132a5.224 5.224 0 01-1.262 1.939 5.243 5.243 0 01-1.94 1.261c-.594.232-1.488.506-3.132.58-1.778.082-2.312.099-6.816.099s-5.036-.017-6.813-.099zm-.14-30.49c-1.795.081-3.021.366-4.093.783a8.271 8.271 0 00-2.988 1.945 8.24 8.24 0 00-1.945 2.988c-.417 1.072-.702 2.298-.783 4.093-.083 1.799-.102 2.374-.102 6.954s.018 5.154.102 6.953c.081 1.795.366 3.021.783 4.093a8.245 8.245 0 001.945 2.988 8.292 8.292 0 002.988 1.945c1.074.417 2.298.702 4.094.783 1.8.082 2.373.103 6.953.103s5.155-.02 6.954-.102c1.795-.082 3.021-.367 4.093-.784a8.294 8.294 0 002.988-1.945 8.262 8.262 0 001.946-2.988c.416-1.072.703-2.298.783-4.093.082-1.8.1-2.373.1-6.953s-.018-5.155-.1-6.954c-.082-1.795-.367-3.022-.783-4.093a8.294 8.294 0 00-1.946-2.988 8.252 8.252 0 00-2.986-1.945c-1.074-.417-2.3-.703-4.094-.783-1.798-.082-2.373-.102-6.953-.102s-5.156.018-6.955.102z" fill="#fff"/></svg>