<svg width="24" height="24" viewBox="0 0 24 24" fill="none" xmlns="http://www.w3.org/2000/svg"><path d="M7.08 22H4.033c-.539 0-1.056-.21-1.437-.586A1.984 1.984 0 012 20v-7c0-.53.214-1.04.595-1.414A2.05 2.05 0 014.032 11h3.049m7.112-2V5c0-.796-.32-1.559-.892-2.121A3.073 3.073 0 0011.145 2l-4.064 9v11h11.462c.49.005.965-.164 1.339-.476.373-.313.62-.747.693-1.224l1.402-9a1.968 1.968 0 00-.476-1.613 2.03 2.03 0 00-.701-.512A2.06 2.06 0 0019.945 9h-5.752z" stroke="#fff" stroke-width="2" stroke-linecap="round" stroke-linejoin="round"/></svg>