<svg width="58" height="58" viewBox="0 0 58 58" fill="none" xmlns="http://www.w3.org/2000/svg"><circle cx="28.968" cy="28.968" r="28.968" fill="#0F68E9"/><path d="M29.914 40.666l-6.92-.126c-2.24-.044-4.487.044-6.683-.411-3.342-.68-3.579-4.013-3.826-6.81a47.575 47.575 0 01.434-11.83c.364-2.188 1.795-3.493 4.008-3.635 7.47-.516 14.991-.454 22.445-.214.788.022 1.58.142 2.356.28 3.832.668 3.926 4.446 4.174 7.626a43.06 43.06 0 01-.33 9.633c-.38 2.642-1.107 4.857-4.174 5.071-3.843.28-7.597.505-11.45.433 0-.017-.023-.017-.034-.017zm-4.068-6.688c2.896-1.656 5.736-3.285 8.616-4.93-2.902-1.655-5.737-3.283-8.616-4.928v9.858z" fill="#fff"/></svg>