<svg width="220" height="52" viewBox="0 0 220 52" fill="none" xmlns="http://www.w3.org/2000/svg">
<path fill-rule="evenodd" clip-rule="evenodd" d="M60.7148 20.5111V19.3556H72.7995V20.5111H67.4124V35.8222H66.2476V20.5111H60.7148Z" fill="#0F68E9"/>
<path fill-rule="evenodd" clip-rule="evenodd" d="M80.5161 30.0445H88.6697L84.5929 21.3778L80.5161 30.0445ZM80.2249 31.0556L77.8954 35.8222H76.585V35.6778L84.3017 19.3556H84.8841L92.6008 35.6778V35.8222H91.4361L89.1065 31.0556H80.2249Z" fill="#0F68E9"/>
<path fill-rule="evenodd" clip-rule="evenodd" d="M106.287 29.1778C108.908 29.1778 110.946 27.4445 110.946 24.8445C110.946 22.2445 109.054 20.5111 106.287 20.5111C104.54 20.5111 102.793 20.5111 101.046 20.5111V29.1778H106.287ZM99.8809 35.8222V19.3556C101.919 19.3556 104.249 19.2111 106.287 19.3556C109.636 19.3556 111.966 21.6667 111.966 24.8445C111.966 28.0222 109.636 30.3334 106.287 30.3334H101.046V35.9667H99.8809V35.8222Z" fill="#0F68E9"/>
<path fill-rule="evenodd" clip-rule="evenodd" d="M120.702 30.0445H128.855L124.778 21.3778L120.702 30.0445ZM120.265 31.0556L118.081 35.8222H116.771V35.6778L124.487 19.3556H125.07L132.786 35.6778V35.8222H131.622L129.292 31.0556H120.265Z" fill="#0F68E9"/>
<path fill-rule="evenodd" clip-rule="evenodd" d="M146.764 19.2111C149.967 19.3556 152.879 20.9445 154.044 23.9778H152.879C151.714 21.6667 149.385 20.2222 146.764 20.2222C142.542 20.2222 139.63 23.4 139.63 27.5889C139.63 31.7778 142.396 34.8111 146.764 34.8111C149.53 34.8111 151.86 33.3667 152.879 30.7667H154.044C152.879 34.0889 149.967 35.8222 146.764 35.8222C141.959 35.8222 138.465 32.5 138.465 27.4445C138.465 22.3889 141.959 19.2111 146.764 19.2111Z" fill="#0F68E9"/>
<path fill-rule="evenodd" clip-rule="evenodd" d="M169.477 34.9555C173.554 34.9555 176.612 31.9222 176.612 27.5889C176.612 23.2555 173.554 20.2222 169.477 20.2222C165.401 20.2222 162.343 23.2555 162.343 27.5889C162.343 31.9222 165.255 34.9555 169.477 34.9555ZM169.477 36.1111C164.673 36.1111 161.178 32.7889 161.178 27.5889C161.178 22.3889 164.818 19.0667 169.477 19.0667C174.137 19.0667 177.776 22.3889 177.776 27.5889C177.776 32.6444 174.282 36.1111 169.477 36.1111Z" fill="#0F68E9"/>
<path fill-rule="evenodd" clip-rule="evenodd" d="M187.24 27.8778V34.6667H192.918C195.102 34.6667 196.995 33.6556 196.995 31.3445C196.995 28.7445 194.811 27.8778 192.336 27.8778H187.24ZM187.24 20.3667V26.8667H192.045C194.374 26.8667 196.122 26.2889 196.122 23.6889C196.122 21.0889 194.229 20.3667 191.899 20.3667H187.24ZM194.811 27.3C196.85 27.8778 198.014 29.3222 198.014 31.3445C198.014 34.3778 195.83 35.8222 192.773 35.8222H185.93V19.3556H192.045C194.957 19.3556 197.286 20.5111 197.286 23.6889C197.286 25.2778 196.558 26.7222 194.811 27.3Z" fill="#0F68E9"/>
<path fill-rule="evenodd" clip-rule="evenodd" d="M207.915 30.0445H216.069L211.992 21.3778L207.915 30.0445ZM207.478 31.0556L205.294 35.8222H203.984V35.6778L211.701 19.3556H212.283L220 35.6778V35.8222H218.835L216.505 31.0556H207.478Z" fill="#0F68E9"/>
<path fill-rule="evenodd" clip-rule="evenodd" d="M64.5004 10.5444H72.5084L68.4316 2.02222L64.5004 10.5444ZM64.0636 11.5556L61.8796 16.1778H60.7148V16.0333L68.286 0.14444H68.8684L76.4395 16.0333V16.1778H75.2747L72.9452 11.5556H64.0636Z" fill="#0F68E9"/>
<path fill-rule="evenodd" clip-rule="evenodd" d="M92.164 16.3222V8.37777H82.5544V16.3222H81.3896V0.14444H82.5544V7.22222H92.164V0.14444H93.4744V16.3222H92.164Z" fill="#0F68E9"/>
<path fill-rule="evenodd" clip-rule="evenodd" d="M102.21 10.5444H110.218L106.287 2.16666L102.21 10.5444ZM101.919 11.5556L99.7352 16.1778H98.4248V16.0333L105.996 0.14444H106.578L114.15 16.0333V16.1778H112.985L110.51 11.5556H101.919Z" fill="#0F68E9"/>
<path fill-rule="evenodd" clip-rule="evenodd" d="M125.506 0C128.564 0.144444 131.476 1.58889 132.641 4.62222H131.476C130.311 2.31111 128.127 1.01111 125.506 1.01111C121.284 0.866667 118.518 4.04445 118.518 8.08889C118.518 12.1333 121.284 15.3111 125.506 15.3111C128.127 15.3111 130.602 13.8667 131.622 11.4111H132.786C131.767 14.5889 128.855 16.3222 125.652 16.3222C120.993 16.3222 117.499 13 117.499 8.08889C117.353 3.32222 120.847 0 125.506 0Z" fill="#0F68E9"/>
<path fill-rule="evenodd" clip-rule="evenodd" d="M136.281 1.3V0.14444H148.074V1.3H142.833V16.3222H141.522V1.3H136.281Z" fill="#0F68E9"/>
<path fill-rule="evenodd" clip-rule="evenodd" d="M153.461 10.5444H161.469L157.392 2.02222L153.461 10.5444ZM153.17 11.5556L150.986 16.1778H149.821V16.0333L157.392 0.14444H157.975L165.546 16.0333V16.1778H164.381L161.906 11.5556H153.17Z" fill="#0F68E9"/>
<path fill-rule="evenodd" clip-rule="evenodd" d="M176.903 0C179.96 0.144444 182.727 1.58889 183.891 4.62222H182.727C181.562 2.31111 179.378 1.01111 176.757 1.01111C172.68 0.866667 169.768 4.04445 169.768 8.08889C169.768 12.1333 172.535 15.3111 176.757 15.3111C179.523 15.3111 181.853 13.8667 182.872 11.4111H184.037C183.018 14.5889 179.96 16.3222 176.757 16.3222C172.098 16.3222 168.604 13 168.604 8.08889C168.604 3.32222 172.098 0 176.903 0Z" fill="#0F68E9"/>
<path fill-rule="evenodd" clip-rule="evenodd" d="M190.007 16.3222H189.715V0.14444H190.88V7.94444L190.735 13.7222L201.8 0.14444H202.237V16.3222H201.072V8.23333L201.218 2.74444L190.007 16.3222Z" fill="#0F68E9"/>
<path fill-rule="evenodd" clip-rule="evenodd" d="M218.835 9.09999V1.3H213.739C211.41 1.3 209.517 2.88888 209.517 5.19999C209.517 7.65555 211.41 9.24444 213.739 9.24444H218.835V9.09999ZM212.72 9.96666C210.245 9.67777 208.352 7.79999 208.352 5.19999C208.352 2.16666 210.682 0.14444 213.739 0.14444H220V16.1778H218.835V10.1111H213.885L208.934 16.3222H207.624V16.1778L212.72 9.96666Z" fill="#0F68E9"/>
<path fill-rule="evenodd" clip-rule="evenodd" d="M64.0636 46.3666V50.1222H63.4812V48.3889H61.2972V50.1222H60.7148V46.3666H61.2972V47.9555H63.4812V46.3666H64.0636Z" fill="#0F68E9"/>
<path fill-rule="evenodd" clip-rule="evenodd" d="M66.3931 47.8111H68.8683C68.8683 47.0889 68.2859 46.6556 67.7035 46.6556C67.1211 46.6556 66.5387 47.2333 66.3931 47.8111ZM69.4507 48.2445H66.3931C66.2475 49.1111 66.9755 49.6889 67.9947 49.6889C68.4315 49.6889 68.7227 49.5445 69.3051 49.4L69.4507 49.9778C68.8683 50.1222 68.5771 50.2667 67.9947 50.2667C66.8299 50.2667 65.8107 49.4 65.9563 48.1C65.9563 46.9445 66.8299 46.2222 67.8491 46.2222C69.0139 46.2222 69.7419 47.0889 69.4507 48.2445Z" fill="#0F68E9"/>
<path fill-rule="evenodd" clip-rule="evenodd" d="M70.9068 46.6555C71.198 46.5111 71.7804 46.3666 72.2172 46.3666C72.9452 46.3666 73.6732 46.6555 73.6732 47.3778C73.6732 47.8111 73.382 48.1 73.0908 48.2444C73.6732 48.3889 73.9644 48.6778 73.9644 49.1111C73.9644 49.9778 73.0908 50.2666 72.3628 50.2666C71.7804 50.2666 71.198 50.1222 70.7612 49.8333V49.2555C71.0524 49.5444 71.6348 49.6889 72.2172 49.6889C72.7996 49.6889 73.2364 49.5444 73.2364 49.1111C73.2364 48.5333 72.654 48.3889 72.0716 48.3889C71.926 48.3889 71.7804 48.3889 71.4892 48.3889V47.9555C71.6348 47.9555 71.7804 47.9555 71.926 47.9555C72.5084 47.9555 72.9452 47.8111 72.9452 47.3778C72.9452 46.8 72.3628 46.8 72.0716 46.8C71.7804 46.8 71.198 46.9444 70.9068 47.0889V46.6555Z" fill="#0F68E9"/>
<path fill-rule="evenodd" clip-rule="evenodd" d="M78.1868 48.3889C77.8956 48.2444 77.3132 48.1 77.022 48.1C76.4396 48.1 76.0028 48.3889 76.1484 48.8222C76.1484 49.4 76.5852 49.5444 77.022 49.5444C77.4588 49.5444 78.1868 49.2555 78.3324 48.8222V48.3889H78.1868ZM76.7308 50.1222C76.0028 50.1222 75.4204 49.8333 75.4204 48.9666C75.4204 48.1 76.1484 47.6666 77.022 47.6666C77.4588 47.6666 77.8956 47.8111 78.3324 47.9555V47.6666C78.3324 46.9444 77.6044 46.8 77.1676 46.8C76.7308 46.8 76.294 46.9444 76.0028 47.0889L75.7116 46.6555C76.0028 46.5111 76.5852 46.3666 77.022 46.3666C77.8956 46.3666 78.7692 46.6555 78.6236 47.6666V49.1111C78.6236 49.5444 78.6236 49.8333 79.206 49.6889V50.1222C78.478 50.2666 78.3324 50.1222 78.3324 49.4C78.0412 49.9778 77.3132 50.1222 76.7308 50.1222Z" fill="#0F68E9"/>
<path fill-rule="evenodd" clip-rule="evenodd" d="M82.2636 49.6889C82.7004 49.6889 83.4284 49.6889 83.4284 49.1111C83.4284 48.5333 82.7004 48.3889 82.2636 48.3889H81.39V49.6889H82.2636ZM82.2636 47.9555C82.7004 47.9555 83.1372 47.8111 83.1372 47.3778C83.1372 46.8 82.5548 46.8 82.2636 46.8H81.39V47.9555H82.2636ZM83.2828 48.1C83.7196 48.2444 84.0108 48.6778 84.0108 48.9666C84.0108 49.9778 83.1372 50.1222 82.4092 50.1222H80.8076C80.8076 48.8222 80.8076 47.5222 80.8076 46.3666H82.2636C82.9916 46.3666 83.8652 46.5111 83.8652 47.3778C83.7196 47.6666 83.574 48.1 83.2828 48.1Z" fill="#0F68E9"/>
<path fill-rule="evenodd" clip-rule="evenodd" d="M85.9034 50.1222H85.7578V46.3666H86.3402V47.6666L86.1946 48.9666L88.961 46.3666H89.1066V50.1222H88.5242V48.8222V47.3778L85.9034 50.1222Z" fill="#0F68E9"/>
<path fill-rule="evenodd" clip-rule="evenodd" d="M93.9111 47.5222C93.7655 46.9444 93.3287 46.8 92.7463 46.8C92.0183 46.8 91.4359 47.2333 91.4359 48.1C91.4359 48.9666 92.1639 49.5444 92.7463 49.5444C93.3287 49.5444 93.6199 49.2555 93.9111 48.8222H94.6391C94.3479 49.6889 93.6199 50.1222 92.8919 50.1222C91.8727 50.1222 90.8535 49.5444 90.8535 48.2444C90.8535 46.9444 91.8727 46.3666 92.8919 46.3666C93.6199 46.3666 94.4935 46.8 94.6391 47.6666H93.9111V47.5222Z" fill="#0F68E9"/>
<path fill-rule="evenodd" clip-rule="evenodd" d="M96.5323 50.1222H96.3867V46.3666H96.9691V47.6666L96.8235 48.9666L99.4443 46.3666H99.5899V50.1222H99.0075V48.8222V47.3778L96.5323 50.1222Z" fill="#0F68E9"/>
<path fill-rule="evenodd" clip-rule="evenodd" d="M103.521 49.2555L102.21 47.6666V50.1222C101.919 50.1222 101.774 50.1222 101.628 50.1222C101.628 48.9666 101.628 47.5222 101.628 46.3666H101.774L103.521 48.5333L105.268 46.3666H105.559C105.559 47.5222 105.559 48.9666 105.559 50.1222C105.268 50.1222 105.122 50.1222 104.977 50.1222V47.6666L103.521 49.2555Z" fill="#0F68E9"/>
<path fill-rule="evenodd" clip-rule="evenodd" d="M111.238 46.3666H111.82V50.1222H111.238V46.3666ZM108.035 48.1V49.6889H108.908C109.491 49.6889 110.073 49.4 110.073 48.9666C110.073 48.3889 109.491 48.1 108.908 48.1H108.035ZM107.452 50.1222V46.3666H108.035V47.6666H108.908C109.782 47.6666 110.655 47.9555 110.655 48.9666C110.655 49.8333 109.782 50.2666 108.908 50.2666H107.452V50.1222Z" fill="#0F68E9"/>
<path fill-rule="evenodd" clip-rule="evenodd" d="M114.441 44.7778C114.586 45.3556 115.023 45.7889 115.606 45.7889C116.334 45.7889 116.77 45.3556 116.77 44.7778C116.625 44.7778 116.479 44.7778 116.334 44.6333C116.188 45.0667 116.042 45.2111 115.606 45.2111C115.314 45.2111 114.878 45.0667 114.878 44.6333L114.441 44.7778ZM114.15 50.1222H113.858V46.3667H114.441V47.6667V48.9667L117.062 46.3667H117.207V50.1222H116.625V48.8222L116.77 47.3778L114.15 50.1222Z" fill="#0F68E9"/>
<path fill-rule="evenodd" clip-rule="evenodd" d="M125.069 47.2334V49.1111C125.943 49.8334 127.108 49.4 127.108 48.1C127.108 46.8 126.089 46.3667 125.069 47.2334ZM124.487 49.2556V47.3778C123.468 46.5111 122.303 47.0889 122.303 48.2445C122.303 49.5445 123.468 49.9778 124.487 49.2556ZM124.487 52V49.8334C123.031 50.7 121.721 49.9778 121.721 48.2445C121.721 46.5111 123.031 45.9334 124.487 46.6556V44.4889H125.069V46.6556C126.38 45.7889 127.69 46.5111 127.69 48.2445C127.69 49.9778 126.38 50.7 125.069 49.8334V52H124.487Z" fill="#0F68E9"/>
<path fill-rule="evenodd" clip-rule="evenodd" d="M129.729 50.1222H129.583V46.3666H130.165V47.6666L130.02 48.9666L132.641 46.3666H132.932V50.1222H132.204V48.8222V47.3778L129.729 50.1222Z" fill="#0F68E9"/>
<path fill-rule="evenodd" clip-rule="evenodd" d="M138.173 46.3666V50.1222H137.591V48.3889H135.407V50.1222H134.825V46.3666H135.407V47.9555H137.591V46.3666H138.173Z" fill="#0F68E9"/>
<path fill-rule="evenodd" clip-rule="evenodd" d="M142.541 48.3889C142.25 48.2444 141.813 48.1 141.376 48.1C140.794 48.1 140.357 48.3889 140.503 48.8222C140.503 49.4 140.94 49.5444 141.376 49.5444C141.959 49.5444 142.541 49.2555 142.687 48.8222V48.3889H142.541ZM141.231 50.1222C140.503 50.1222 139.92 49.8333 139.92 48.9666C139.775 48.1 140.648 47.6666 141.376 47.6666C141.813 47.6666 142.25 47.8111 142.687 47.9555V47.6666C142.687 46.9444 141.959 46.8 141.522 46.8C141.085 46.8 140.648 46.9444 140.357 47.0889L140.212 46.6555C140.648 46.5111 141.085 46.3666 141.522 46.3666C142.396 46.3666 143.269 46.6555 143.269 47.6666V49.1111C143.269 49.5444 143.124 49.8333 143.706 49.6889V50.1222C143.124 50.2666 142.832 50.1222 142.832 49.4C142.396 49.9778 141.813 50.1222 141.231 50.1222Z" fill="#0F68E9"/>
<path fill-rule="evenodd" clip-rule="evenodd" d="M148.511 46.3666V50.1222H147.928V48.3889H145.89V50.1222H145.308V46.3666H145.89V47.9555H147.928V46.3666H148.511Z" fill="#0F68E9"/>
<path fill-rule="evenodd" clip-rule="evenodd" d="M153.461 47.5222C153.316 46.9444 152.733 46.8 152.297 46.8C151.569 46.8 150.841 47.2333 150.841 48.1C150.841 48.9666 151.569 49.5444 152.151 49.5444C152.733 49.5444 153.17 49.2555 153.461 48.8222H154.044C153.753 49.6889 153.025 50.1222 152.151 50.1222C151.277 50.1222 150.258 49.5444 150.258 48.2444C150.258 46.9444 151.277 46.3666 152.297 46.3666C153.025 46.3666 153.753 46.8 154.044 47.6666H153.461V47.5222Z" fill="#0F68E9"/>
<path fill-rule="evenodd" clip-rule="evenodd" d="M158.848 48.2445C158.848 46.3667 156.082 46.3667 156.082 48.2445C156.227 50.1222 158.848 50.1222 158.848 48.2445ZM155.5 48.2445C155.5 45.6445 159.576 45.6445 159.576 48.2445C159.576 50.8445 155.5 50.8445 155.5 48.2445Z" fill="#0F68E9"/>
<path fill-rule="evenodd" clip-rule="evenodd" d="M162.78 49.6889C163.362 49.6889 163.945 49.6889 163.945 49.1111C163.945 48.5333 163.217 48.3889 162.78 48.3889H162.052V49.6889H162.78ZM162.634 47.9555C163.071 47.9555 163.508 47.8111 163.508 47.3778C163.508 46.8 162.925 46.8 162.634 46.8H161.906V47.9555H162.634ZM163.653 48.1C164.09 48.2444 164.381 48.6778 164.381 48.9666C164.381 49.9778 163.508 50.1222 162.78 50.1222H161.178C161.178 48.8222 161.178 47.5222 161.178 46.3666H162.489C163.217 46.3666 164.09 46.5111 164.09 47.3778C164.236 47.6666 164.09 48.1 163.653 48.1Z" fill="#0F68E9"/>
<path fill-rule="evenodd" clip-rule="evenodd" d="M170.06 46.3666H170.642V50.1222H170.06V46.3666ZM166.711 48.1V49.6889H167.584C168.167 49.6889 168.749 49.4 168.749 48.9666C168.749 48.3889 168.167 48.1 167.584 48.1H166.711ZM166.128 50.1222V46.3666H166.711V47.6666H167.584C168.312 47.6666 169.186 47.9555 169.186 48.9666C169.186 49.8333 168.312 50.2666 167.584 50.2666H166.128V50.1222Z" fill="#0F68E9"/>
<path fill-rule="evenodd" clip-rule="evenodd" d="M173.263 44.7778C173.408 45.3556 173.845 45.7889 174.427 45.7889C175.01 45.7889 175.447 45.3556 175.592 44.7778C175.447 44.7778 175.301 44.7778 175.155 44.6333C175.01 45.0667 174.864 45.2111 174.427 45.2111C173.991 45.2111 173.699 45.0667 173.699 44.6333L173.263 44.7778ZM172.826 50.1222H172.68V46.3667H173.263V47.6667L173.117 48.9667L175.738 46.3667H176.029V50.1222H175.447V48.8222L175.592 47.3778L172.826 50.1222Z" fill="#0F68E9"/>
<path fill-rule="evenodd" clip-rule="evenodd" d="M183.746 47.5222C183.6 46.9444 183.163 46.8 182.581 46.8C181.853 46.8 181.125 47.2333 181.125 48.1C181.125 48.9666 181.853 49.5444 182.581 49.5444C183.018 49.5444 183.454 49.2555 183.746 48.8222H184.328C184.037 49.6889 183.309 50.1222 182.435 50.1222C181.562 50.1222 180.542 49.5444 180.542 48.2444C180.542 46.9444 181.562 46.3666 182.581 46.3666C183.309 46.3666 184.037 46.8 184.328 47.6666H183.746V47.5222Z" fill="#0F68E9"/>
<path fill-rule="evenodd" clip-rule="evenodd" d="M189.133 48.2445C189.133 46.3667 186.367 46.3667 186.367 48.2445C186.367 50.1222 189.133 50.1222 189.133 48.2445ZM185.784 48.2445C185.784 45.6445 189.861 45.6445 189.861 48.2445C189.715 50.8445 185.784 50.8445 185.784 48.2445Z" fill="#0F68E9"/>
<path fill-rule="evenodd" clip-rule="evenodd" d="M192.918 49.6889C193.501 49.6889 194.083 49.6889 194.083 49.1111C194.083 48.5333 193.355 48.3889 192.918 48.3889H192.19V49.6889H192.918ZM192.918 47.9555C193.355 47.9555 193.792 47.8111 193.792 47.3778C193.792 46.8 193.21 46.8 192.918 46.8H192.19V47.9555H192.918ZM193.938 48.1C194.52 48.2444 194.666 48.6778 194.666 48.9666C194.666 49.9778 193.792 50.1222 193.064 50.1222H191.462C191.462 48.8222 191.462 47.5222 191.462 46.3666H192.773C193.501 46.3666 194.374 46.5111 194.374 47.3778C194.374 47.6666 194.229 48.1 193.938 48.1Z" fill="#0F68E9"/>
<path fill-rule="evenodd" clip-rule="evenodd" d="M196.85 47.8111H199.325C199.325 47.0889 198.742 46.6556 198.16 46.6556C197.432 46.8 196.85 47.2333 196.85 47.8111ZM199.762 48.2445H196.704C196.558 49.1111 197.286 49.6889 198.16 49.6889C198.597 49.6889 199.034 49.5445 199.47 49.4L199.616 49.9778C199.179 50.1222 198.742 50.2667 198.306 50.2667C196.995 50.2667 196.122 49.4 196.122 48.1C196.267 46.9445 196.995 46.2222 198.014 46.2222C199.325 46.2222 200.053 47.0889 199.762 48.2445Z" fill="#0F68E9"/>
<path fill-rule="evenodd" clip-rule="evenodd" d="M202.528 50.1222V46.9444H201.218V46.3666H204.421V46.9444H203.111V50.1222H202.528Z" fill="#0F68E9"/>
<path fill-rule="evenodd" clip-rule="evenodd" d="M209.226 46.3666V50.1222H208.643V48.3889H206.605V50.1222H206.022V46.3666H206.605V47.9555H208.643V46.3666H209.226Z" fill="#0F68E9"/>
<path fill-rule="evenodd" clip-rule="evenodd" d="M211.555 50.1222H211.264V46.3666H211.847V47.6666V48.9666L214.467 46.3666H214.613V50.1222H214.031V48.8222V47.3778L211.555 50.1222Z" fill="#0F68E9"/>
<path fill-rule="evenodd" clip-rule="evenodd" d="M217.816 47.9555C218.835 47.9555 219.272 47.3777 219.272 46.3666H219.855C219.855 47.2333 219.563 47.9555 218.835 48.2444L220 50.1222V50.2666H219.418L218.253 48.5333C218.107 48.6777 217.962 48.6778 217.816 48.6778H217.234V50.4111H216.651V46.6555H217.234V48.2444H217.816V47.9555Z" fill="#0F68E9"/>
<path fill-rule="evenodd" clip-rule="evenodd" d="M34.6525 38.2777C34.6525 37.7 34.5069 37.1222 34.5069 36.4C35.3805 36.4 36.6909 36.5444 38.7293 36.5444C40.6221 36.5444 41.9325 36.4 42.8061 36.4C42.6605 37.1222 42.6605 37.7 42.6605 38.2777C42.6605 38.8555 42.6605 39.1444 42.6605 39.4333H42.3693C42.2237 38.7111 42.2237 38.1333 42.0781 37.7C41.9325 37.4111 41.7869 37.1222 41.4957 36.9777C41.2045 36.8333 40.7677 36.6889 40.1853 36.6889H39.3117V44.9222C39.3117 45.3555 39.3117 45.6444 39.4573 45.7889C39.6029 45.9333 39.6029 46.0777 39.8941 46.0777C40.0397 46.2222 40.4765 46.2222 40.7677 46.2222V46.5111H36.3997V46.2222C36.8365 46.2222 37.1277 46.0777 37.4189 46.0777C37.5645 46.0777 37.7101 45.9333 37.7101 45.7889C37.8557 45.6444 37.8557 45.2111 37.8557 44.9222V36.6889H36.9821C36.3997 36.6889 35.9629 36.8333 35.6717 36.9777C35.3805 37.1222 35.0893 37.4111 34.9437 37.7C34.7981 38.1333 34.7981 38.5666 34.6525 39.4333H34.3613C34.6525 39.1444 34.6525 38.8555 34.6525 38.2777Z" fill="#0F68E9"/>
<path fill-rule="evenodd" clip-rule="evenodd" d="M38.2923 46.2222H39.0203C39.0203 46.2222 38.8747 46.2222 38.8747 46.0778C38.7291 45.7889 38.7291 45.5 38.7291 44.9222V36.9778C38.5835 36.9778 38.5835 36.9778 38.4379 36.9778V44.9222C38.5835 45.5 38.4379 45.7889 38.2923 46.2222ZM41.3499 47.2333H35.9627V45.9333H36.3995C36.9819 45.9333 37.1275 45.7889 37.1275 45.7889C37.2731 45.6445 37.2731 45.6445 37.2731 45.6445C37.2731 45.5 37.4187 45.3556 37.4187 44.9222V37.2667H37.1275C36.5451 37.2667 36.2539 37.4111 36.1083 37.4111C35.9627 37.5556 35.8171 37.7 35.6715 37.9889C35.5259 38.2778 35.5259 38.8556 35.3803 39.5778V40.0111H33.9243L34.0699 39.4333C34.0699 39.1445 34.0699 38.7111 34.0699 38.2778C34.0699 37.8445 34.0699 37.1222 33.9243 36.5445V35.9667H34.5067C35.2347 35.9667 36.6907 35.9667 38.5835 35.9667C40.4763 35.9667 41.7867 35.9667 42.6603 35.9667H43.2426L43.097 36.5445C42.9515 37.2667 42.9515 37.8445 42.9515 38.2778C42.9515 38.7111 42.9515 39.1445 42.9515 39.4333L43.097 40.0111H41.7867L41.6411 39.5778C41.4955 38.8556 41.4955 38.2778 41.3499 37.9889C41.2043 37.7 41.2043 37.7 41.0587 37.4111C40.9131 37.2667 40.4763 37.2667 39.8939 37.2667H39.6027V44.9222C39.6027 45.5 39.6027 45.6445 39.7483 45.6445C39.7483 45.6445 39.7483 45.6445 39.8939 45.7889C40.0395 45.7889 40.1851 45.9333 40.6219 45.9333H41.2043V47.2333H41.3499Z" fill="#0F68E9"/>
<path fill-rule="evenodd" clip-rule="evenodd" d="M21.1118 9.24444L29.2654 31.0556H12.6671L21.1118 9.24444ZM7.57115 46.2222C7.57115 44.6333 8.15354 42.7556 9.02713 40.1556L12.0847 32.5H36.9821L24.315 0H23.1502L5.82396 44.2C4.36797 47.8111 2.47518 49.9778 0 50.5556V52H13.9775V50.5556C11.7935 50.5556 10.1919 50.1222 9.17273 49.5444C8.15354 48.9667 7.57115 47.6667 7.57115 46.2222Z" fill="#0F68E9"/>
<path fill-rule="evenodd" clip-rule="evenodd" d="M30.2844 50.5555C30.1388 50.5555 30.1388 50.5555 29.9932 50.5555V52H47.3194V50.5555H47.1738H30.2844Z" fill="#0F68E9"/>
</svg>
