<svg width="220" height="52" viewBox="0 0 220 52" fill="none" xmlns="http://www.w3.org/2000/svg"><path fill-rule="evenodd" clip-rule="evenodd" d="M60.715 20.511v-1.155h12.084v1.155h-5.387v15.311h-1.164v-15.31h-5.533zm19.801 9.533h8.154l-4.077-8.666-4.077 8.666zm-.291 1.012l-2.33 4.766h-1.31v-.144l7.717-16.322h.582l7.717 16.322v.144h-1.165l-2.33-4.766h-8.881zm26.062-1.878c2.621 0 4.659-1.733 4.659-4.334 0-2.6-1.892-4.333-4.659-4.333h-5.241v8.667h5.241zm-6.406 6.644V19.356c2.038 0 4.368-.145 6.406 0 3.349 0 5.679 2.31 5.679 5.488 0 3.178-2.33 5.49-5.679 5.49h-5.241v5.633h-1.165v-.145zm20.821-5.778h8.153l-4.077-8.666-4.076 8.666zm-.437 1.012l-2.184 4.766h-1.31v-.144l7.716-16.322h.583l7.716 16.322v.144h-1.164l-2.33-4.766h-9.027zm26.499-11.845c3.203.145 6.115 1.734 7.28 4.767h-1.165a6.797 6.797 0 00-6.115-3.756c-4.222 0-7.134 3.178-7.134 7.367s2.766 7.222 7.134 7.222c2.766 0 5.096-1.444 6.115-4.044h1.165c-1.165 3.322-4.077 5.055-7.28 5.055-4.805 0-8.299-3.322-8.299-8.378 0-5.055 3.494-8.233 8.299-8.233zm22.713 15.745c4.077 0 7.135-3.034 7.135-7.367s-3.058-7.367-7.135-7.367c-4.076 0-7.134 3.034-7.134 7.367s2.912 7.367 7.134 7.367zm0 1.155c-4.804 0-8.299-3.322-8.299-8.522s3.64-8.522 8.299-8.522c4.66 0 8.299 3.322 8.299 8.522 0 5.055-3.494 8.522-8.299 8.522zm17.763-8.233v6.789h5.678c2.184 0 4.077-1.011 4.077-3.323 0-2.6-2.184-3.466-4.659-3.466h-5.096zm0-7.511v6.5h4.805c2.329 0 4.077-.578 4.077-3.178s-1.893-3.322-4.223-3.322h-4.659zm7.571 6.933c2.039.578 3.203 2.022 3.203 4.044 0 3.034-2.184 4.478-5.241 4.478h-6.843V19.356h6.115c2.912 0 5.241 1.155 5.241 4.333 0 1.589-.728 3.033-2.475 3.611zm13.104 2.744h8.154l-4.077-8.666-4.077 8.666zm-.437 1.012l-2.184 4.766h-1.31v-.144l7.717-16.322h.582L220 35.678v.144h-1.165l-2.33-4.766h-9.027zM64.5 10.544h8.008l-4.076-8.522-3.932 8.522zm-.436 1.012l-2.184 4.622h-1.165v-.145L68.286.144h.582l7.572 15.89v.144h-1.165l-2.33-4.622h-8.881zm28.1 4.766V8.378h-9.61v7.944H81.39V.144h1.164v7.078h9.61V.144h1.31v16.178h-1.31zm10.046-5.778h8.008l-3.931-8.377-4.077 8.377zm-.291 1.012l-2.184 4.622h-1.31v-.145L105.996.144h.582l7.572 15.89v.144h-1.165l-2.475-4.622h-8.591zM125.506 0c3.058.144 5.97 1.589 7.135 4.622h-1.165c-1.165-2.31-3.349-3.61-5.97-3.61-4.222-.145-6.988 3.032-6.988 7.077 0 4.044 2.766 7.222 6.988 7.222 2.621 0 5.096-1.444 6.116-3.9h1.164c-1.019 3.178-3.931 4.911-7.134 4.911-4.659 0-8.153-3.322-8.153-8.233C117.353 3.322 120.847 0 125.506 0zm10.775 1.3V.144h11.793V1.3h-5.241v15.022h-1.311V1.3h-5.241zm17.18 9.244h8.008l-4.077-8.522-3.931 8.522zm-.291 1.012l-2.184 4.622h-1.165v-.145L157.392.144h.583l7.571 15.89v.144h-1.165l-2.475-4.622h-8.736zM176.903 0c3.057.144 5.824 1.589 6.988 4.622h-1.164c-1.165-2.31-3.349-3.61-5.97-3.61-4.077-.145-6.989 3.032-6.989 7.077 0 4.044 2.767 7.222 6.989 7.222 2.766 0 5.096-1.444 6.115-3.9h1.165c-1.019 3.178-4.077 4.911-7.28 4.911-4.659 0-8.153-3.322-8.153-8.233 0-4.767 3.494-8.089 8.299-8.089zm13.104 16.322h-.292V.144h1.165v7.8l-.145 5.778L201.8.144h.437v16.178h-1.165V8.233l.146-5.489-11.211 13.578zM218.835 9.1V1.3h-5.096c-2.329 0-4.222 1.589-4.222 3.9 0 2.456 1.893 4.044 4.222 4.044h5.096V9.1zm-6.115.867c-2.475-.29-4.368-2.167-4.368-4.767 0-3.033 2.33-5.056 5.387-5.056H220v16.034h-1.165V10.11h-4.95l-4.951 6.211h-1.31v-.144l5.096-6.211zm-148.656 36.4v3.755h-.583V48.39h-2.184v1.733h-.582v-3.755h.582v1.589h2.184v-1.59h.583zm2.329 1.444h2.475c0-.722-.582-1.155-1.164-1.155-.583 0-1.165.577-1.31 1.155zm3.058.434h-3.058c-.145.866.582 1.444 1.602 1.444.436 0 .728-.145 1.31-.289l.146.578c-.583.144-.874.289-1.456.289-1.165 0-2.184-.867-2.039-2.167 0-1.156.874-1.878 1.893-1.878 1.165 0 1.893.867 1.602 2.023zm1.456-1.589c.291-.145.873-.29 1.31-.29.728 0 1.456.29 1.456 1.012 0 .433-.291.722-.582.866.582.145.873.434.873.867 0 .867-.873 1.156-1.601 1.156-.583 0-1.165-.145-1.602-.434v-.578c.291.29.874.434 1.456.434.583 0 1.02-.145 1.02-.578 0-.578-.583-.722-1.165-.722h-.583v-.434h.437c.582 0 1.02-.144 1.02-.577 0-.578-.583-.578-.874-.578-.292 0-.874.144-1.165.289v-.433zm7.28 1.733c-.291-.145-.874-.289-1.165-.289-.582 0-1.02.289-.874.722 0 .578.437.722.874.722s1.165-.288 1.31-.722v-.433h-.145zm-1.456 1.733c-.728 0-1.31-.289-1.31-1.155 0-.867.727-1.3 1.601-1.3.437 0 .874.144 1.31.288v-.288c0-.723-.728-.867-1.164-.867a2.76 2.76 0 00-1.165.289l-.291-.433c.29-.145.873-.29 1.31-.29.874 0 1.747.29 1.602 1.3v1.445c0 .433 0 .722.582.578v.433c-.728.145-.874 0-.874-.722-.29.578-1.019.722-1.601.722zm5.533-.433c.436 0 1.164 0 1.164-.578s-.728-.722-1.164-.722h-.874v1.3h.874zm0-1.733c.436 0 .873-.145.873-.578 0-.578-.582-.578-.873-.578h-.874v1.156h.874zm1.019.144c.437.144.728.578.728.867 0 1.01-.874 1.155-1.602 1.155h-1.601v-3.755h1.456c.728 0 1.601.144 1.601 1.01-.145.29-.291.723-.582.723zm2.62 2.022h-.145v-3.755h.582v1.3l-.145 1.3 2.766-2.6h.146v3.755h-.583v-2.744l-2.62 2.744zm8.008-2.6c-.145-.578-.582-.722-1.165-.722-.728 0-1.31.433-1.31 1.3s.728 1.444 1.31 1.444c.583 0 .874-.288 1.165-.722h.728c-.291.867-1.02 1.3-1.747 1.3-1.02 0-2.038-.578-2.038-1.878 0-1.3 1.019-1.877 2.038-1.877.728 0 1.602.433 1.747 1.3h-.728v-.145zm2.621 2.6h-.145v-3.755h.582v1.3l-.145 1.3 2.62-2.6h.146v3.755h-.583v-2.744l-2.475 2.744zm6.989-.867l-1.311-1.588v2.455h-.582v-3.755h.146l1.747 2.166 1.747-2.166h.291v3.755h-.582v-2.455l-1.456 1.588zm7.717-2.888h.582v3.755h-.582v-3.755zm-3.203 1.733v1.589h.873c.583 0 1.165-.289 1.165-.722 0-.578-.582-.867-1.165-.867h-.873zm-.583 2.022v-3.755h.583v1.3h.873c.874 0 1.747.288 1.747 1.3 0 .866-.873 1.3-1.747 1.3h-1.456v-.145zm6.989-5.344c.145.578.582 1.01 1.165 1.01.728 0 1.164-.432 1.164-1.01-.145 0-.291 0-.436-.145-.146.434-.292.578-.728.578-.292 0-.728-.144-.728-.578l-.437.145zm-.291 5.344h-.292v-3.755h.583v2.6l2.621-2.6h.145v3.755h-.582v-1.3l.145-1.444-2.62 2.744zm10.919-2.889v1.878c.874.722 2.039.289 2.039-1.011 0-1.3-1.019-1.733-2.039-.867zm-.582 2.023v-1.878c-1.019-.867-2.184-.29-2.184.867 0 1.3 1.165 1.733 2.184 1.01zm0 2.744v-2.167c-1.456.867-2.766.145-2.766-1.588 0-1.734 1.31-2.312 2.766-1.59V44.49h.582v2.167c1.311-.867 2.621-.145 2.621 1.589 0 1.733-1.31 2.455-2.621 1.588V52h-.582zm5.242-1.878h-.146v-3.755h.582v1.3l-.145 1.3 2.621-2.6h.291v3.755h-.728v-2.744l-2.475 2.744zm8.444-3.755v3.755h-.582V48.39h-2.184v1.733h-.582v-3.755h.582v1.589h2.184v-1.59h.582zm4.368 2.022a2.759 2.759 0 00-1.165-.289c-.582 0-1.019.289-.873.722 0 .578.437.722.873.722.583 0 1.165-.288 1.311-.722v-.433h-.146zm-1.31 1.733c-.728 0-1.311-.289-1.311-1.155-.145-.867.728-1.3 1.456-1.3.437 0 .874.144 1.311.288v-.288c0-.723-.728-.867-1.165-.867-.437 0-.874.144-1.165.289l-.145-.433c.436-.145.873-.29 1.31-.29.874 0 1.747.29 1.747 1.3v1.445c0 .433-.145.722.437.578v.433c-.582.145-.874 0-.874-.722-.436.578-1.019.722-1.601.722zm7.28-3.755v3.755h-.583V48.39h-2.038v1.733h-.582v-3.755h.582v1.589h2.038v-1.59h.583zm4.95 1.155c-.145-.578-.728-.722-1.164-.722-.728 0-1.456.433-1.456 1.3s.728 1.444 1.31 1.444c.582 0 1.019-.288 1.31-.722h.583c-.291.867-1.019 1.3-1.893 1.3-.874 0-1.893-.578-1.893-1.878 0-1.3 1.019-1.877 2.039-1.877.728 0 1.456.433 1.747 1.3h-.583v-.145zm5.387.723c0-1.878-2.766-1.878-2.766 0 .145 1.877 2.766 1.877 2.766 0zm-3.348 0c0-2.6 4.076-2.6 4.076 0s-4.076 2.6-4.076 0zm7.28 1.444c.582 0 1.165 0 1.165-.578s-.728-.722-1.165-.722h-.728v1.3h.728zm-.146-1.733c.437 0 .874-.145.874-.578 0-.578-.583-.578-.874-.578h-.728v1.156h.728zm1.019.144c.437.144.728.578.728.867 0 1.01-.873 1.155-1.601 1.155h-1.602v-3.755h1.311c.728 0 1.601.144 1.601 1.01.146.29 0 .723-.437.723zm6.407-1.733h.582v3.755h-.582v-3.755zm-3.349 1.733v1.589h.873c.583 0 1.165-.289 1.165-.722 0-.578-.582-.867-1.165-.867h-.873zm-.583 2.022v-3.755h.583v1.3h.873c.728 0 1.602.288 1.602 1.3 0 .866-.874 1.3-1.602 1.3h-1.456v-.145zm7.135-5.344c.145.578.582 1.01 1.164 1.01.583 0 1.02-.432 1.165-1.01-.145 0-.291 0-.437-.145-.145.434-.291.578-.728.578-.436 0-.728-.144-.728-.578l-.436.145zm-.437 5.344h-.146v-3.755h.583v1.3l-.146 1.3 2.621-2.6h.291v3.755h-.582v-1.3l.145-1.444-2.766 2.744zm10.92-2.6c-.146-.578-.583-.722-1.165-.722-.728 0-1.456.433-1.456 1.3s.728 1.444 1.456 1.444c.437 0 .873-.288 1.165-.722h.582c-.291.867-1.019 1.3-1.893 1.3-.873 0-1.893-.578-1.893-1.878 0-1.3 1.02-1.877 2.039-1.877.728 0 1.456.433 1.747 1.3h-.582v-.145zm5.387.723c0-1.878-2.766-1.878-2.766 0 0 1.877 2.766 1.877 2.766 0zm-3.349 0c0-2.6 4.077-2.6 4.077 0-.146 2.6-4.077 2.6-4.077 0zm7.134 1.444c.583 0 1.165 0 1.165-.578s-.728-.722-1.165-.722h-.728v1.3h.728zm0-1.733c.437 0 .874-.145.874-.578 0-.578-.582-.578-.874-.578h-.728v1.156h.728zm1.02.144c.582.144.728.578.728.867 0 1.01-.874 1.155-1.602 1.155h-1.602v-3.755h1.311c.728 0 1.601.144 1.601 1.01 0 .29-.145.723-.436.723zm2.912-.289h2.475c0-.722-.583-1.155-1.165-1.155-.728.144-1.31.577-1.31 1.155zm2.912.434h-3.058c-.146.866.582 1.444 1.456 1.444.437 0 .874-.145 1.31-.289l.146.578c-.437.144-.874.289-1.31.289-1.311 0-2.184-.867-2.184-2.167.145-1.156.873-1.878 1.892-1.878 1.311 0 2.039.867 1.748 2.023zm2.766 1.877v-3.178h-1.31v-.577h3.203v.577h-1.31v3.178h-.583zm6.698-3.755v3.755h-.583V48.39h-2.038v1.733h-.583v-3.755h.583v1.589h2.038v-1.59h.583zm2.329 3.755h-.291v-3.755h.583v2.6l2.62-2.6h.146v3.755h-.582v-2.744l-2.476 2.744zm6.261-2.166c1.019 0 1.456-.578 1.456-1.59h.583c0 .867-.292 1.59-1.02 1.878L220 50.122v.145h-.582l-1.165-1.734c-.146.145-.291.145-.437.145h-.582v1.733h-.583v-3.755h.583v1.588h.582v-.288zM34.653 38.278c0-.578-.146-1.156-.146-1.878.873 0 2.184.144 4.222.144 1.893 0 3.203-.144 4.077-.144-.145.722-.145 1.3-.145 1.878v1.155h-.292c-.145-.722-.145-1.3-.29-1.733-.147-.289-.292-.578-.583-.722a2.927 2.927 0 00-1.31-.29h-.874v8.234c0 .434 0 .722.145.867.146.144.146.289.437.289.146.144.583.144.874.144v.29H36.4v-.29c.437 0 .728-.144 1.019-.144.146 0 .291-.145.291-.29.146-.144.146-.577.146-.866V36.69h-.874c-.582 0-1.02.144-1.31.289a1.748 1.748 0 00-.728.722c-.146.433-.146.867-.291 1.733h-.292c.292-.289.292-.578.292-1.155z" fill="#0F68E9"/><path fill-rule="evenodd" clip-rule="evenodd" d="M38.292 46.222h.728s-.145 0-.145-.144c-.146-.29-.146-.578-.146-1.156v-7.944h-.291v7.944c.145.578 0 .867-.146 1.3zm3.058 1.011h-5.387v-1.3h.437c.582 0 .727-.144.727-.144l.146-.145c0-.144.146-.288.146-.722v-7.655h-.291c-.583 0-.874.144-1.02.144-.145.145-.29.289-.436.578-.146.289-.146.867-.292 1.589v.433h-1.456l.146-.578v-1.155c0-.434 0-1.156-.146-1.733v-.578h9.319l-.146.578c-.145.722-.145 1.3-.145 1.733v1.155l.145.578h-1.31l-.146-.433c-.145-.722-.145-1.3-.291-1.59l-.291-.577c-.146-.144-.583-.144-1.165-.144h-.291v7.655c0 .578 0 .723.145.723l.146.144c.145 0 .291.144.728.144h.582v1.3h.146zM21.112 9.244l8.153 21.812H12.667l8.445-21.812zM7.572 46.222c0-1.589.582-3.466 1.455-6.066l3.058-7.656h24.897L24.315 0H23.15L5.824 44.2C4.368 47.811 2.475 49.978 0 50.556V52h13.977v-1.444c-2.184 0-3.785-.434-4.804-1.012-1.02-.577-1.602-1.877-1.602-3.322zm22.712 4.334h-.29V52h17.325v-1.444H30.284z" fill="#0F68E9"/></svg>