<svg width="148" height="134" viewBox="0 0 148 134" fill="none" xmlns="http://www.w3.org/2000/svg"><path d="M0 133.292V98.215c0-15.98 4.286-33.193 12.857-51.64C21.43 27.995 33.507 12.471 49.091 0l24.936 20.267a259.43 259.43 0 00-21.43 36.635c-5.973 12.602-8.96 26.113-8.96 40.533v35.857H0zm73.973 0V98.215c0-15.98 4.286-33.193 12.858-51.64C95.402 27.995 107.48 12.471 123.065 0L148 20.267a259.421 259.421 0 00-21.429 36.635c-5.974 12.602-8.961 26.113-8.961 40.533v35.857H73.973z" fill="#0F68E9"/></svg>