<svg width="148" height="134" viewBox="0 0 148 134" fill="none" xmlns="http://www.w3.org/2000/svg"><path d="M148 .708v35.077c0 15.98-4.286 33.193-12.857 51.64-8.572 18.579-20.65 34.103-36.234 46.575l-24.936-20.267a259.42 259.42 0 0021.43-36.635c5.973-12.602 8.96-26.113 8.96-40.533V.708H148zm-73.973 0v35.077c0 15.98-4.286 33.193-12.858 51.64-8.57 18.58-20.649 34.104-36.234 46.575L0 113.733a259.421 259.421 0 0021.43-36.635c5.974-12.602 8.961-26.113 8.961-40.533V.708h43.637z" fill="#0F68E9"/></svg>